<svg width="17" height="14" viewBox="0 0 17 14" fill="#ff4348" xmlns="http://www.w3.org/2000/svg">
<g id="&#229;&#150;&#156;&#230;&#172;&#162;-fill">
<path id="&#232;&#183;&#175;&#229;&#190;&#132;" d="M12.4644 0C11.2978 0 10.189 0.436465 9.34223 1.23414C9.25999 1.3094 8.83354 1.73683 8.50457 2.06794L7.6669 1.24317C6.8201 0.442485 5.7083 0 4.53252 0C2.03171 0 0 2.01075 0 4.47904C0 5.92088 0.728006 7.00452 1.35549 7.67276L6.96631 13.2746C7.41104 13.714 7.9045 14 8.50152 14C9.09855 14 9.59201 13.714 10.0367 13.2746L15.6445 7.67577L15.6841 7.63363C16.3603 6.79983 17 6.01118 17 4.48205C16.997 2.01075 14.9622 0 12.4644 0Z" fill="#ff4348"/>
</g>
</svg>
