<svg width="116" height="160" viewBox="0 0 116 160" fill="none" xmlns="http://www.w3.org/2000/svg">
<g id="Frame 133">
<g id="Group">
<g id="Group_2">
<path id="Vector" d="M43.7779 26.6581C42.9966 26.865 42.295 27.3013 41.7633 27.911C41.2315 28.5207 40.8938 29.2758 40.7939 30.0792C40.5892 31.7088 41.6019 32.8204 43.0454 32.5614C43.826 32.3531 44.5269 31.9164 45.0584 31.307C45.5899 30.6975 45.928 29.9432 46.0294 29.1403C46.2341 27.5106 45.2214 26.3991 43.7779 26.6581Z" fill="#26EAA3"/>
<path id="Vector_2" d="M40.9992 49.2248C40.1029 49.4675 39.2987 49.9716 38.6888 50.6729C38.0789 51.3742 37.6906 52.2413 37.5734 53.164C37.3364 55.031 38.5108 56.3045 40.1697 56.0023C41.0645 55.7603 41.8675 55.2579 42.4773 54.5587C43.087 53.8594 43.476 52.9947 43.5953 52.074C43.8215 50.1961 42.6689 48.9226 40.9992 49.2248Z" fill="#22DEAD"/>
<path id="Vector_3" d="M38.2198 71.802C37.2074 72.0712 36.2985 72.6373 35.6095 73.4276C34.9204 74.2179 34.4826 75.1964 34.3524 76.2376C34.0938 78.3421 35.4296 79.7882 37.2824 79.4753C38.292 79.2008 39.1982 78.6332 39.8864 77.8439C40.5746 77.0546 41.0141 76.0788 41.1498 75.0397C41.4084 72.8812 40.0726 71.4782 38.2198 71.802Z" fill="#1ED2B7"/>
<path id="Vector_4" d="M35.4398 94.358C34.311 94.6604 33.2981 95.2933 32.5305 96.1758C31.7629 97.0583 31.2755 98.1501 31.1308 99.3116C30.8399 101.664 32.2942 103.262 34.3625 102.895C35.4883 102.59 36.4987 101.958 37.2658 101.078C38.0328 100.198 38.522 99.1104 38.6715 97.9518C38.9516 95.5883 37.4973 93.9802 35.4398 94.358Z" fill="#19C7C2"/>
<path id="Vector_5" d="M40.7826 112.51C39.5449 112.836 38.4317 113.523 37.584 114.484C36.7364 115.445 36.1925 116.636 36.0213 117.906C35.7089 120.507 37.3141 122.223 39.6194 121.856C40.8571 121.53 41.9703 120.843 42.818 119.883C43.6656 118.922 44.2095 117.731 44.3807 116.46C44.6931 113.849 43.0771 112.143 40.7826 112.5" fill="#15BBCC"/>
<path id="Vector_6" d="M59.8609 106.37C58.5027 106.734 57.2833 107.495 56.3586 108.556C55.4338 109.617 54.8455 110.93 54.6686 112.327C54.3131 115.165 56.0796 117.108 58.5896 116.644C59.9507 116.28 61.1726 115.518 62.0993 114.455C63.0261 113.392 63.6157 112.076 63.7928 110.676C64.1375 107.848 62.3817 105.906 59.8609 106.359" fill="#11AFD6"/>
<path id="Vector_7" d="M67.6073 83.4685C64.8711 83.9542 62.3503 86.8465 61.9733 89.9439C61.5963 93.0413 63.503 95.1242 66.2823 94.6385C69.0615 94.1529 71.5392 91.2498 71.9162 88.1632C72.2933 85.0766 70.3865 82.9829 67.6073 83.4793" fill="#0DA3E0"/>
<path id="Vector_8" d="M70.4923 60.017C67.5407 60.5458 64.8154 63.6648 64.4168 66.9888C64.0182 70.3128 66.065 72.5792 69.0059 72.0504C71.9467 71.5215 74.6828 68.3918 75.0922 65.0785C75.5015 61.7653 73.444 59.4882 70.4923 60.017" fill="#0898EB"/>
<path id="Vector_9" d="M73.3808 36.6086C70.2137 37.1806 67.2946 40.5262 66.8529 44.0876C66.4112 47.6491 68.6302 50.0881 71.7865 49.4838C74.9428 48.8794 77.873 45.5662 78.3039 42.0047C78.7348 38.4433 76.5371 36.015 73.3808 36.6086Z" fill="#048CF5"/>
<path id="Vector_10" d="M76.2567 13.1246C72.8741 13.7398 69.7932 17.3228 69.2977 21.1217C68.8022 24.9206 71.1828 27.5215 74.5653 26.9171C77.9478 26.3128 81.0287 22.7297 81.535 18.92C82.0413 15.1104 79.6392 12.5202 76.2567 13.1246" fill="#0080FF"/>
</g>
</g>
<g id="Group_3">
<g id="Group_4">
<path id="Vector_11" d="M28.4272 36.1984C27.6488 36.4052 26.9498 36.8404 26.42 37.448C25.8902 38.0557 25.5538 38.8082 25.454 39.6088C25.2494 41.2384 26.2621 42.3608 27.7056 42.1018C28.4856 41.8889 29.1854 41.4494 29.7165 40.8386C30.2475 40.2278 30.5861 39.4731 30.6895 38.6698C30.8834 37.0402 29.8815 35.9394 28.4272 36.1984Z" fill="#26EAA3"/>
<path id="Vector_12" d="M26.0049 55.8942C25.1561 56.1337 24.3969 56.6189 23.822 57.2889C23.2472 57.9589 22.8822 58.7839 22.7732 59.6606C22.547 61.463 23.6674 62.6933 25.2617 62.4019C26.1233 62.1713 26.897 61.6889 27.484 61.0162C28.0711 60.3435 28.445 59.511 28.5581 58.6246C28.7736 56.8331 27.6639 55.6136 26.0588 55.8942" fill="#23E2AA"/>
<path id="Vector_13" d="M23.5804 75.59C22.6397 75.8449 21.7956 76.3737 21.1551 77.1095C20.5145 77.8454 20.1066 78.7551 19.9826 79.7235C19.7456 81.6769 20.9629 83.0259 22.7081 82.7129C23.648 82.4601 24.4915 81.9333 25.1321 81.1993C25.7727 80.4653 26.1812 79.5573 26.3059 78.5903C26.5537 76.6261 25.3363 75.2771 23.5804 75.59Z" fill="#20DAB1"/>
<path id="Vector_14" d="M21.1561 95.2966C20.1358 95.571 19.2201 96.1435 18.5256 96.9412C17.8311 97.7388 17.3895 98.7254 17.2566 99.7754C16.9981 101.934 18.3339 103.358 20.2083 103.013C21.2265 102.733 22.1401 102.159 22.8354 101.362C23.5306 100.566 23.9768 99.5827 24.1185 98.5343C24.3771 96.3759 23.0413 94.9405 21.1561 95.2966Z" fill="#1DD2B8"/>
<path id="Vector_15" d="M21.1347 114.852C20.0355 115.147 19.0489 115.764 18.3007 116.623C17.5525 117.482 17.0766 118.545 16.9336 119.676C16.6535 121.975 18.0755 123.54 20.1653 123.184C21.2674 122.888 22.2566 122.271 23.0068 121.409C23.757 120.548 24.2341 119.483 24.3773 118.349C24.6573 116.05 23.2354 114.485 21.1455 114.852" fill="#1AC9BF"/>
<path id="Vector_16" d="M29.5691 128.343C28.3895 128.662 27.3308 129.324 26.5273 130.246C25.7238 131.168 25.2116 132.309 25.0555 133.523C24.7539 135.994 26.2835 137.667 28.4703 137.279C29.6506 136.961 30.71 136.299 31.5137 135.376C32.3174 134.454 32.8292 133.313 32.9839 132.098C33.2855 129.638 31.7559 127.954 29.5691 128.343Z" fill="#17C1C6"/>
<path id="Vector_17" d="M44.6187 132.444C43.3596 132.781 42.229 133.485 41.3698 134.467C40.5107 135.449 39.9617 136.664 39.7926 137.958C39.4695 140.603 41.107 142.394 43.4446 141.984C44.706 141.644 45.8382 140.936 46.6974 139.95C47.5566 138.965 48.1042 137.746 48.2707 136.448C48.5938 133.814 46.9563 132.023 44.6187 132.444Z" fill="#14B9CD"/>
<path id="Vector_18" d="M62.1459 125.18C60.8049 125.54 59.6012 126.291 58.688 127.339C57.7748 128.386 57.1935 129.683 57.0183 131.062C56.6735 133.868 58.408 135.778 60.8964 135.379C62.2361 135.017 63.4384 134.265 64.3512 133.218C65.264 132.171 65.8461 130.876 66.0241 129.497C66.3688 126.691 64.6344 124.781 62.1459 125.18Z" fill="#12B1D5"/>
<path id="Vector_19" d="M76.1812 109.262C73.5419 109.737 71.1074 112.5 70.795 115.5C70.4826 118.5 72.2816 120.486 74.9101 120.022C77.5386 119.558 79.9839 116.784 80.2963 113.784C80.6087 110.784 78.8097 108.787 76.1812 109.262Z" fill="#0FA9DC"/>
<path id="Vector_20" d="M83.5175 88.4652C80.7382 88.9617 78.1312 91.908 77.7865 95.0485C77.4418 98.1891 79.3377 100.315 82.0955 99.8187C84.8532 99.3222 87.4818 96.3759 87.8265 93.2354C88.1712 90.0948 86.2753 87.9688 83.5175 88.4652Z" fill="#0CA1E3"/>
<path id="Vector_21" d="M86.0289 68.1219C83.0988 68.6399 80.3951 71.7481 79.9857 75.0505C79.5764 78.3529 81.6231 80.5978 84.5532 80.0797C87.4833 79.5617 90.1981 76.4535 90.5967 73.1403C90.9952 69.827 88.959 67.5931 86.0289 68.1219Z" fill="#0998EA"/>
<path id="Vector_22" d="M88.5277 47.8107C85.4468 48.3611 82.6029 51.6204 82.1721 55.0955C81.7412 58.5706 83.8956 60.9233 86.9765 60.3729C90.0574 59.8225 92.9012 56.5633 93.3214 53.099C93.7415 49.6346 91.6086 47.2603 88.5277 47.8107Z" fill="#0690F1"/>
<path id="Vector_23" d="M91.0265 27.4998C87.7947 28.0826 84.8108 31.5038 84.3584 35.1408C83.9059 38.7777 86.1681 41.26 89.3998 40.688C92.6315 40.116 95.6154 36.684 96.0571 33.0471C96.4988 29.4101 94.2582 26.917 91.0265 27.4998" fill="#0388F8"/>
<path id="Vector_24" d="M93.5145 7.19953C90.1427 7.8039 87.051 11.3762 86.5555 15.1858C86.06 18.9955 88.4406 21.5856 91.8231 20.9813C95.2057 20.3769 98.2865 16.7938 98.7928 12.995C99.2992 9.19609 96.897 6.59517 93.5145 7.19953" fill="#0080FF"/>
</g>
</g>
<g id="Group_5">
<g id="Group_6">
<path id="Vector_25" d="M13.0229 43.5804C12.2435 43.7925 11.5444 44.2321 11.0149 44.8432C10.4855 45.4543 10.1497 46.2094 10.0497 47.0123C9.84506 48.6419 10.8575 49.7427 12.301 49.4837C13.0801 49.2762 13.78 48.841 14.3114 48.2337C14.8428 47.6264 15.1816 46.8744 15.285 46.0734C15.4789 44.4438 14.4772 43.3214 13.0229 43.5804Z" fill="#26EAA3"/>
<path id="Vector_26" d="M10.7513 62.2617C9.90636 62.4833 9.14706 62.9532 8.57107 63.6111C7.99509 64.2689 7.62882 65.0844 7.51961 65.9526C7.30416 67.7118 8.3814 68.9097 9.9434 68.6291C10.7868 68.4082 11.5452 67.9399 12.121 67.2841C12.6969 66.6284 13.0639 65.8152 13.1751 64.949C13.3906 63.179 12.3026 61.9811 10.7406 62.2617" fill="#24E4A8"/>
<path id="Vector_27" d="M8.43389 80.954C7.53007 81.1919 6.7178 81.6951 6.10161 82.3989C5.48543 83.1028 5.09327 83.9751 4.97572 84.9039C4.73872 86.7926 5.91311 88.0768 7.59361 87.7854C8.49643 87.5403 9.30605 87.0319 9.91983 86.3247C10.5336 85.6176 10.9238 84.7436 11.0407 83.8139C11.2777 81.936 10.1036 80.6518 8.43389 80.954" fill="#22DEAE"/>
<path id="Vector_28" d="M6.12947 99.6353C5.16801 99.8954 4.30506 100.435 3.64939 101.186C2.99372 101.937 2.57478 102.866 2.44538 103.855C2.19761 105.873 3.44705 107.244 5.23527 106.92C6.201 106.664 7.06814 106.125 7.72482 105.371C8.38149 104.617 8.79776 103.683 8.91962 102.689C9.16738 100.682 7.91769 99.3115 6.12947 99.6353Z" fill="#1FD7B3"/>
<path id="Vector_29" d="M3.95307 118.144C2.92977 118.424 2.01172 119 1.31414 119.801C0.616569 120.602 0.170646 121.591 0.0320243 122.644C-0.226514 124.803 1.10927 126.249 2.99444 125.882C4.01823 125.605 4.93732 125.031 5.63679 124.232C6.33626 123.433 6.78488 122.446 6.92627 121.392C7.18481 119.234 5.84902 117.788 3.95307 118.155" fill="#1DD1B9"/>
<path id="Vector_30" d="M6.65744 133.739C5.57125 134.029 4.5959 134.637 3.85545 135.484C3.11499 136.332 2.64305 137.381 2.49943 138.498C2.21934 140.775 3.57658 142.319 5.64489 141.962C6.73261 141.671 7.70917 141.062 8.44977 140.212C9.19037 139.363 9.66154 138.311 9.80316 137.192C10.0832 134.926 8.72574 133.372 6.65744 133.739Z" fill="#1BCBBE"/>
<path id="Vector_31" d="M15.7375 145.006C14.5896 145.311 13.559 145.953 12.7777 146.849C11.9965 147.745 11.5005 148.854 11.3533 150.035C11.0517 152.431 12.5381 154.061 14.6711 153.683C15.819 153.378 16.8499 152.736 17.6311 151.84C18.4123 150.944 18.9083 149.834 19.0555 148.654C19.3464 146.258 17.8705 144.617 15.7375 145.006Z" fill="#19C5C3"/>
<path id="Vector_32" d="M29.9249 150.791C28.7151 151.115 27.6293 151.794 26.8062 152.74C25.9831 153.685 25.4599 154.855 25.3034 156.1C24.991 158.626 26.553 160.342 28.7937 159.942C30.002 159.618 31.0867 158.941 31.9097 157.998C32.7327 157.054 33.2567 155.886 33.4151 154.643C33.7275 152.107 32.1655 150.391 29.9249 150.791" fill="#16BEC9"/>
<path id="Vector_33" d="M47.9145 150.024C46.6438 150.364 45.5029 151.075 44.6375 152.066C43.7721 153.058 43.2216 154.286 43.0561 155.593C42.7329 158.248 44.381 160.061 46.7294 159.64C48.0016 159.3 49.1435 158.588 50.009 157.594C50.8745 156.6 51.4242 155.369 51.5878 154.061C51.9109 151.406 50.2736 149.603 47.9145 150.024Z" fill="#14B8CE"/>
<path id="Vector_34" d="M66.2613 142.567C64.9309 142.924 63.737 143.671 62.8315 144.71C61.926 145.75 61.3499 147.036 61.1767 148.405C60.832 151.19 62.5554 153.078 65.0223 152.636C66.3539 152.279 67.5494 151.533 68.4568 150.493C69.3641 149.454 69.9425 148.167 70.1179 146.797C70.4626 144.024 68.7281 142.124 66.2613 142.567" fill="#12B2D4"/>
<path id="Vector_35" d="M81.9451 129.962C79.3704 130.426 76.9895 133.199 76.6233 136.07C76.257 138.941 78.0668 140.97 80.6522 140.506C82.0448 140.133 83.295 139.353 84.2429 138.265C85.1908 137.176 85.7936 135.83 85.9739 134.397C86.3294 131.483 84.5304 129.498 81.9451 129.962Z" fill="#10ACD9"/>
<path id="Vector_36" d="M93.3526 113.849C90.6595 114.334 88.1711 117.183 87.7941 120.227C87.4171 123.27 89.3021 125.332 92.006 124.846C94.7099 124.36 97.1877 121.511 97.5648 118.468C97.9418 115.424 96.0565 113.363 93.3526 113.849Z" fill="#0DA5DF"/>
<path id="Vector_37" d="M98.8791 95.8147C96.0783 96.3219 93.4928 99.3006 93.0942 102.463C92.6956 105.625 94.667 107.783 97.4679 107.276C100.269 106.769 102.854 103.801 103.263 100.639C103.673 97.4767 101.691 95.3182 98.8791 95.8147Z" fill="#0B9FE4"/>
<path id="Vector_38" d="M101.24 76.6693C98.3098 77.1981 95.6166 80.2847 95.218 83.5872C94.8194 86.8896 96.8446 89.1235 99.7747 88.5947C102.705 88.0659 105.387 84.9794 105.797 81.6877C106.206 78.3961 104.159 76.1513 101.24 76.6693Z" fill="#0999E9"/>
<path id="Vector_39" d="M103.597 57.5238C100.559 58.0634 97.7585 61.2795 97.3384 64.7114C96.9183 68.1433 99.0298 70.4637 102.068 69.9133C105.105 69.3629 107.906 66.1576 108.326 62.7365C108.747 59.3153 106.624 56.9734 103.597 57.5238Z" fill="#0793EF"/>
<path id="Vector_40" d="M105.947 38.3784C102.79 38.9504 99.8926 42.2852 99.4832 45.8358C99.0739 49.3865 101.239 51.8039 104.384 51.2319C107.53 50.66 110.439 47.336 110.848 43.7853C111.257 40.2347 109.092 37.8172 105.936 38.3892" fill="#048CF4"/>
<path id="Vector_41" d="M108.306 19.2329C105.074 19.8265 102.025 23.2692 101.573 26.9493C101.12 30.6295 103.404 33.1333 106.668 32.5505C109.932 31.9677 112.948 28.5142 113.401 24.8341C113.853 21.1539 111.57 18.6501 108.306 19.2329Z" fill="#0286FA"/>
<path id="Vector_42" d="M110.664 0.0875027C107.282 0.691869 104.201 4.27492 103.695 8.0738C103.188 11.8727 105.58 14.4736 108.962 13.8692C112.345 13.2649 115.426 9.69267 115.932 5.883C116.438 2.07334 114.036 -0.516863 110.664 0.0875027Z" fill="#0080FF"/>
</g>
</g>
</g>
</svg>
