<svg width="149" height="48" viewBox="0 0 149 48" fill="none" xmlns="http://www.w3.org/2000/svg">
<g id="logo">
<path id="dnsDAO" d="M68.656 15.528H70.576V33H68.776V30.96C67.912 32.544 66.536 33.336 64.648 33.336C62.84 33.336 61.424 32.68 60.4 31.368C59.472 30.184 59.008 28.648 59.008 26.76C59.008 24.936 59.472 23.432 60.4 22.248C61.392 20.92 62.776 20.256 64.552 20.256C66.328 20.256 67.696 21.128 68.656 22.872V15.528ZM64.96 21.84C63.584 21.84 62.56 22.32 61.888 23.28C61.28 24.096 60.976 25.256 60.976 26.76C60.976 28.264 61.272 29.44 61.864 30.288C62.552 31.264 63.56 31.752 64.888 31.752C66.136 31.752 67.104 31.272 67.792 30.312C68.4 29.432 68.704 28.304 68.704 26.928V26.688C68.704 25.264 68.36 24.096 67.672 23.184C66.984 22.288 66.08 21.84 64.96 21.84ZM79.3585 20.256C82.4465 20.256 83.9905 21.96 83.9905 25.368V33H82.0705V25.512C82.0705 23.096 80.9825 21.888 78.8065 21.888C77.9425 21.888 77.1985 22.2 76.5745 22.824C75.9185 23.48 75.5505 24.376 75.4705 25.512V33H73.5505V20.592H75.4705V22.416C75.9025 21.712 76.4545 21.184 77.1265 20.832C77.7985 20.448 78.5425 20.256 79.3585 20.256ZM91.3488 20.256C94.4048 20.256 96.1008 21.544 96.4368 24.12H94.5648C94.3888 23.32 94.0688 22.76 93.6048 22.44C93.0768 22.056 92.3168 21.864 91.3248 21.864C90.4448 21.864 89.7728 22.024 89.3088 22.344C88.7808 22.648 88.5168 23.08 88.5168 23.64C88.5168 24.184 88.8688 24.632 89.5728 24.984C89.9728 25.176 90.8288 25.448 92.1408 25.8C93.6128 26.152 94.6768 26.536 95.3328 26.952C96.3248 27.576 96.8208 28.424 96.8208 29.496C96.8208 32.056 95.0688 33.336 91.5648 33.336C88.3008 33.336 86.5248 31.904 86.2368 29.04H88.1088C88.2528 30 88.5968 30.704 89.1408 31.152C89.6688 31.536 90.4608 31.728 91.5168 31.728C93.7408 31.728 94.8528 31.024 94.8528 29.616C94.8528 28.928 94.4608 28.392 93.6768 28.008C93.2768 27.816 92.3968 27.552 91.0368 27.216C89.5488 26.848 88.5248 26.48 87.9648 26.112C87.0208 25.552 86.5488 24.744 86.5488 23.688C86.5488 22.648 87.0128 21.816 87.9408 21.192C88.8048 20.568 89.9408 20.256 91.3488 20.256ZM99.3139 15.864H105.458C108.178 15.864 110.226 16.648 111.602 18.216C112.882 19.672 113.522 21.744 113.522 24.432C113.522 27.072 112.834 29.144 111.458 30.648C110.018 32.216 107.954 33 105.266 33H99.3139V15.864ZM101.282 17.568V31.296H104.93C107.154 31.296 108.834 30.704 109.97 29.52C111.042 28.352 111.578 26.656 111.578 24.432C111.578 22.144 111.082 20.44 110.09 19.32C109.034 18.152 107.386 17.568 105.146 17.568H101.282ZM121.275 15.864H123.555L130.299 33H128.163L126.339 28.2H118.467L116.643 33H114.531L121.275 15.864ZM119.091 26.544H125.715L122.475 17.976H122.379L119.091 26.544ZM139.521 15.528C142.097 15.528 144.121 16.384 145.593 18.096C147.001 19.744 147.705 21.864 147.705 24.456C147.705 27.016 147.001 29.12 145.593 30.768C144.105 32.48 142.073 33.336 139.497 33.336C136.937 33.336 134.913 32.48 133.425 30.768C132.017 29.152 131.313 27.048 131.313 24.456C131.313 21.848 132.017 19.736 133.425 18.12C134.913 16.392 136.945 15.528 139.521 15.528ZM139.521 17.28C137.537 17.28 135.985 17.96 134.865 19.32C133.809 20.616 133.281 22.328 133.281 24.456C133.281 26.568 133.809 28.272 134.865 29.568C135.969 30.912 137.513 31.584 139.497 31.584C141.465 31.584 143.009 30.928 144.129 29.616C145.201 28.304 145.737 26.584 145.737 24.456C145.737 22.296 145.201 20.56 144.129 19.248C143.025 17.936 141.489 17.28 139.521 17.28Z" fill="#333333"/>
<g id="&#231;&#188;&#150;&#231;&#187;&#132; 13">
<circle id="&#230;&#164;&#173;&#229;&#156;&#134;&#229;&#189;&#162;" cx="24" cy="24" r="24" fill="#0080FF"/>
<circle id="&#230;&#164;&#173;&#229;&#156;&#134;&#229;&#189;&#162;_2" cx="23.5" cy="24.5" r="9.5" stroke="white" stroke-width="3.5"/>
<rect id="&#231;&#159;&#169;&#229;&#189;&#162;" x="22" y="7" width="4" height="34" fill="white"/>
<rect id="&#231;&#159;&#169;&#229;&#189;&#162;_2" x="12" y="7" width="4" height="4" rx="2" fill="white"/>
<rect id="&#231;&#159;&#169;&#229;&#189;&#162;_3" x="22" y="37" width="8" height="4" fill="white"/>
<rect id="&#231;&#159;&#169;&#229;&#189;&#162;_4" x="18" y="7" width="8" height="4" fill="white"/>
<rect id="&#231;&#159;&#169;&#229;&#189;&#162;_5" x="31" y="37" width="4" height="4" rx="2" fill="white"/>
</g>
</g>
</svg>
