<svg width="110" height="49" viewBox="0 0 110 49" fill="none" xmlns="http://www.w3.org/2000/svg">
<g id="logo">
<g id="Frame 132">
<path id="Vector" d="M33.8224 19C33.8943 19 33.9655 19.0135 34.0319 19.0397C34.0983 19.0659 34.1586 19.1043 34.2093 19.1527C34.26 19.2011 34.3002 19.2585 34.3275 19.3217C34.3548 19.3848 34.3686 19.4525 34.3683 19.5208V27.5529C34.3683 28.746 34.6592 29.6243 35.2409 30.1877C35.8226 30.7511 36.7466 31.0328 38.013 31.0328C39.2595 31.0328 40.1919 30.7511 40.7877 30.1877C41.3835 29.6243 41.6578 28.72 41.6578 27.5529V20.721C41.6574 20.4949 41.7041 20.271 41.7951 20.062C41.886 19.8531 42.0195 19.6632 42.1879 19.5034C42.3562 19.3435 42.5561 19.2167 42.7762 19.1304C42.9962 19.044 43.232 18.9997 43.4701 19C43.5432 19 43.6154 19.0137 43.6829 19.0402C43.7503 19.0667 43.8116 19.1056 43.8633 19.1546C43.9149 19.2036 43.9558 19.2618 43.9838 19.3259C44.0117 19.3899 44.0261 19.4586 44.0261 19.5279V27.5221C44.0261 29.3039 43.4992 30.669 42.4455 31.6175C41.3935 32.5407 39.916 33.0016 38.013 33C36.11 32.9984 34.6392 32.5439 33.6005 31.6364C32.5335 30.6753 32 29.3039 32 27.5221V20.7281C32 20.501 32.0472 20.2761 32.1388 20.0662C32.2304 19.8564 32.3646 19.6658 32.5339 19.5053C32.7031 19.3448 32.9041 19.2176 33.1252 19.1309C33.3463 19.0442 33.5832 18.9997 33.8224 19V19Z" fill="white"/>
<path id="Vector_2" d="M46.8604 22.4302C46.8604 21.5204 47.241 20.6479 47.9184 20.0047C48.5958 19.3614 49.5146 19 50.4727 19H52.143C54.4698 19 56.2439 19.6155 57.4654 20.8465C58.6288 22.0112 59.2105 23.6832 59.2105 25.8627C59.2105 28.0421 58.6288 29.7142 57.4654 30.8789C56.2522 32.1099 54.4781 32.7254 52.143 32.7254H47.4238C47.2741 32.7247 47.1308 32.6679 47.0252 32.5671C46.9196 32.4664 46.8604 32.3301 46.8604 32.188V22.4302ZM49.2287 22.8113V30.2658C49.2287 30.4083 49.2883 30.545 49.3945 30.6458C49.5006 30.7465 49.6445 30.8032 49.7946 30.8032H51.6967C53.4917 30.8032 54.8079 30.4086 55.6456 29.6195C56.4533 28.8115 56.858 27.5624 56.8597 25.8722C56.8597 24.1362 56.455 22.8799 55.6456 22.1035C54.8362 21.327 53.5199 20.9325 51.6967 20.9198H51.2156C50.6884 20.9217 50.1834 21.1218 49.8111 21.4762C49.4387 21.8306 49.2293 22.3107 49.2287 22.8113Z" fill="white"/>
<path id="Vector_3" d="M66.6377 22.4302C66.6377 21.9789 66.7315 21.5321 66.9137 21.1153C67.0958 20.6985 67.3628 20.32 67.6993 20.0013C68.0358 19.6827 68.4351 19.4302 68.8745 19.2584C69.314 19.0866 69.7848 18.9988 70.26 19H71.9303C74.267 19 76.042 19.6155 77.2553 20.8465C78.4187 22.0112 79.0003 23.6832 79.0003 25.8627C79.0003 28.0422 78.4187 29.7142 77.2553 30.8789C76.0387 32.1099 74.2637 32.7254 71.9303 32.7254H67.2136C67.0635 32.7254 66.9195 32.6688 66.8134 32.568C66.7073 32.4672 66.6477 32.3305 66.6477 32.188L66.6377 22.4302ZM69.006 22.8113V30.2658C69.006 30.4083 69.0656 30.545 69.1717 30.6458C69.2779 30.7466 69.4218 30.8032 69.5719 30.8032H71.4741C73.269 30.8032 74.5853 30.4086 75.4229 29.6195C76.234 28.8115 76.6387 27.5624 76.637 25.8722C76.637 24.1362 76.2323 22.8799 75.4229 22.1035C74.6135 21.327 73.2973 20.9325 71.4741 20.9199H70.9929C70.467 20.9236 69.9639 21.1245 69.5932 21.4787C69.2225 21.8329 69.0141 22.3119 69.0135 22.8113H69.006Z" fill="white"/>
<path id="Vector_4" d="M63.2468 19C63.3943 19 63.5356 19.0556 63.6399 19.1546C63.7441 19.2536 63.8027 19.3879 63.8027 19.5279V32.1951C63.8031 32.2646 63.7889 32.3335 63.7611 32.3978C63.7333 32.4622 63.6924 32.5206 63.6408 32.5699C63.5891 32.6192 63.5277 32.6583 63.4601 32.685C63.3925 32.7116 63.32 32.7254 63.2468 32.7254H62.0003C61.9271 32.7254 61.8546 32.7116 61.787 32.685C61.7194 32.6583 61.658 32.6192 61.6063 32.5699C61.5546 32.5206 61.5138 32.4622 61.486 32.3978C61.4582 32.3335 61.444 32.2646 61.4443 32.1951V20.721C61.4437 20.266 61.6331 19.8293 61.9709 19.5067C62.3088 19.1841 62.7677 19.0019 63.2468 19V19Z" fill="white"/>
</g>
<g id="Frame 133">
<g id="Group">
<g id="Group_2">
<path id="Vector_5" d="M9.05739 14.3312C8.89574 14.3726 8.7506 14.4599 8.64058 14.5818C8.53056 14.7037 8.46069 14.8548 8.44001 15.0154C8.39766 15.3414 8.60719 15.5637 8.90585 15.5119C9.06735 15.4702 9.21235 15.3829 9.32233 15.261C9.4323 15.1391 9.50225 14.9882 9.52322 14.8277C9.56557 14.5017 9.35604 14.2794 9.05739 14.3312Z" fill="#26EAA3"/>
<path id="Vector_6" d="M8.48266 18.8443C8.29722 18.8929 8.13083 18.9937 8.00464 19.1339C7.87845 19.2742 7.79813 19.4476 7.77387 19.6322C7.72484 20.0056 7.96781 20.2603 8.31104 20.1998C8.49616 20.1514 8.66231 20.0509 8.78847 19.9111C8.91462 19.7712 8.99511 19.5983 9.01978 19.4142C9.06658 19.0386 8.82812 18.7839 8.48266 18.8443Z" fill="#22DEAD"/>
<path id="Vector_7" d="M7.90737 23.3599C7.69792 23.4137 7.50987 23.5269 7.36731 23.685C7.22475 23.843 7.13415 24.0387 7.10722 24.247C7.05372 24.6679 7.33009 24.9571 7.71344 24.8945C7.92232 24.8396 8.1098 24.7261 8.25218 24.5682C8.39457 24.4104 8.48551 24.2152 8.51359 24.0074C8.56708 23.5757 8.29072 23.2951 7.90737 23.3599Z" fill="#1ED2B7"/>
<path id="Vector_8" d="M7.33277 27.8709C7.09924 27.9313 6.88966 28.0579 6.73085 28.2344C6.57203 28.4109 6.4712 28.6293 6.44126 28.8616C6.38108 29.3321 6.68197 29.6516 7.10989 29.5782C7.34282 29.5173 7.55186 29.3909 7.71056 29.2149C7.86926 29.039 7.97048 28.8213 8.0014 28.5896C8.05935 28.1169 7.75846 27.7953 7.33277 27.8709Z" fill="#19C7C2"/>
<path id="Vector_9" d="M8.43845 31.5018C8.18237 31.567 7.95205 31.7044 7.77668 31.8965C7.6013 32.0886 7.48878 32.3269 7.45335 32.581C7.38872 33.1012 7.72082 33.4444 8.19778 33.371C8.45387 33.3058 8.68418 33.1684 8.85956 32.9763C9.03494 32.7841 9.14746 32.5459 9.18289 32.2918C9.24752 31.7694 8.91318 31.4284 8.43845 31.4996" fill="#15BBCC"/>
<path id="Vector_10" d="M12.3855 30.2736C12.1044 30.3464 11.8522 30.4986 11.6608 30.7108C11.4695 30.923 11.3478 31.1856 11.3112 31.465C11.2376 32.0327 11.6031 32.4212 12.1224 32.3284C12.404 32.2556 12.6568 32.1032 12.8486 31.8906C13.0403 31.678 13.1623 31.4148 13.1989 31.1348C13.2703 30.5693 12.907 30.1808 12.3855 30.2714" fill="#11AFD6"/>
<path id="Vector_11" d="M13.988 25.6931C13.4219 25.7902 12.9003 26.3687 12.8223 26.9881C12.7443 27.6076 13.1388 28.0242 13.7138 27.9271C14.2889 27.8299 14.8015 27.2493 14.8795 26.632C14.9575 26.0147 14.563 25.5959 13.988 25.6952" fill="#0DA3E0"/>
<path id="Vector_12" d="M14.5856 21.0031C13.9749 21.1088 13.4111 21.7326 13.3286 22.3974C13.2462 23.0622 13.6696 23.5155 14.2781 23.4097C14.8865 23.304 15.4526 22.678 15.5373 22.0154C15.622 21.3527 15.1963 20.8973 14.5856 21.0031" fill="#0898EB"/>
<path id="Vector_13" d="M15.1825 16.3211C14.5272 16.4355 13.9233 17.1046 13.8319 17.8169C13.7405 18.5292 14.1996 19.017 14.8526 18.8961C15.5057 18.7752 16.1119 18.1126 16.2011 17.4003C16.2902 16.688 15.8355 16.2024 15.1825 16.3211Z" fill="#048CF5"/>
<path id="Vector_14" d="M15.7775 11.6244C15.0777 11.7475 14.4402 12.4641 14.3377 13.2239C14.2352 13.9836 14.7277 14.5038 15.4276 14.3829C16.1274 14.2621 16.7648 13.5455 16.8696 12.7835C16.9743 12.0216 16.4773 11.5036 15.7775 11.6244" fill="#0080FF"/>
</g>
</g>
<g id="Group_3">
<g id="Group_4">
<path id="Vector_15" d="M5.88133 16.24C5.72027 16.2813 5.57565 16.3684 5.46604 16.4899C5.35643 16.6114 5.28683 16.7619 5.26618 16.9221C5.22384 17.248 5.43336 17.4725 5.73202 17.4207C5.89341 17.3781 6.03819 17.2902 6.14806 17.168C6.25793 17.0459 6.32798 16.8949 6.34939 16.7343C6.38951 16.4083 6.18221 16.1882 5.88133 16.24Z" fill="#26EAA3"/>
<path id="Vector_16" d="M5.37972 20.1794C5.2041 20.2273 5.04703 20.3244 4.92809 20.4584C4.80915 20.5924 4.73364 20.7574 4.71109 20.9327C4.66428 21.2932 4.89609 21.5392 5.22595 21.481C5.40422 21.4348 5.56428 21.3384 5.68574 21.2038C5.8072 21.0693 5.88457 20.9028 5.90797 20.7255C5.95254 20.3672 5.72296 20.1233 5.39087 20.1794" fill="#23E2AA"/>
<path id="Vector_17" d="M4.87841 24.1184C4.68377 24.1694 4.50913 24.2751 4.37661 24.4223C4.24409 24.5695 4.15969 24.7514 4.13403 24.9451C4.085 25.3358 4.33686 25.6056 4.69792 25.543C4.89238 25.4924 5.06691 25.3871 5.19945 25.2403C5.33198 25.0935 5.41651 24.9118 5.44229 24.7185C5.49356 24.3256 5.2417 24.0558 4.87841 24.1184Z" fill="#20DAB1"/>
<path id="Vector_18" d="M4.37689 28.0597C4.16579 28.1146 3.97633 28.2291 3.83265 28.3886C3.68897 28.5481 3.59758 28.7454 3.5701 28.9554C3.51661 29.3871 3.79298 29.672 4.18079 29.603C4.39146 29.5469 4.58048 29.4321 4.72432 29.2728C4.86817 29.1136 4.96047 28.9169 4.98981 28.7072C5.0433 28.2755 4.76693 27.9884 4.37689 28.0597Z" fill="#1DD2B8"/>
<path id="Vector_19" d="M4.37257 31.9706C4.14514 32.0297 3.94101 32.153 3.78621 32.3248C3.63141 32.4966 3.53296 32.7092 3.50337 32.9355C3.44542 33.3952 3.73962 33.7082 4.172 33.6369C4.40002 33.5779 4.60467 33.4543 4.75989 33.2821C4.9151 33.1099 5.01382 32.8968 5.04344 32.67C5.10138 32.2102 4.80719 31.8972 4.3748 31.9706" fill="#1AC9BF"/>
<path id="Vector_20" d="M6.11748 34.6689C5.87341 34.7327 5.65437 34.8652 5.48813 35.0496C5.32189 35.234 5.21593 35.4621 5.18363 35.7049C5.12123 36.1992 5.4377 36.5338 5.89014 36.4561C6.13434 36.3925 6.35352 36.2601 6.51981 36.0756C6.6861 35.8911 6.79197 35.6629 6.82398 35.42C6.88639 34.9279 6.56992 34.5912 6.11748 34.6689Z" fill="#17C1C6"/>
<path id="Vector_21" d="M9.23152 35.4893C8.97103 35.5568 8.7371 35.6976 8.55934 35.894C8.38159 36.0903 8.26801 36.3333 8.23303 36.5923C8.16616 37.1211 8.50497 37.4794 8.98861 37.3974C9.24959 37.3294 9.48383 37.1878 9.6616 36.9907C9.83937 36.7935 9.95266 36.5497 9.9871 36.2901C10.054 35.7634 9.71516 35.4051 9.23152 35.4893Z" fill="#14B9CD"/>
<path id="Vector_22" d="M12.858 34.0364C12.5806 34.1083 12.3315 34.2586 12.1426 34.4681C11.9537 34.6776 11.8334 34.9369 11.7971 35.2128C11.7258 35.774 12.0847 36.156 12.5995 36.0762C12.8767 36.0037 13.1254 35.8533 13.3143 35.6439C13.5031 35.4345 13.6236 35.1755 13.6604 34.8998C13.7317 34.3386 13.3729 33.9566 12.858 34.0364Z" fill="#12B1D5"/>
<path id="Vector_23" d="M15.7613 30.8528C15.2153 30.9478 14.7116 31.5004 14.6469 32.1004C14.5823 32.7005 14.9545 33.0976 15.4983 33.0048C16.0422 32.912 16.5481 32.3573 16.6127 31.7572C16.6774 31.1572 16.3051 30.7579 15.7613 30.8528Z" fill="#0FA9DC"/>
<path id="Vector_24" d="M17.2791 26.6936C16.704 26.7929 16.1646 27.3821 16.0933 28.0102C16.022 28.6384 16.4143 29.0636 16.9848 28.9643C17.5554 28.865 18.0992 28.2757 18.1706 27.6476C18.2419 27.0195 17.8496 26.5943 17.2791 26.6936Z" fill="#0CA1E3"/>
<path id="Vector_25" d="M17.7992 22.6249C17.193 22.7285 16.6336 23.3501 16.5489 24.0106C16.4642 24.6711 16.8876 25.12 17.4939 25.0164C18.1001 24.9128 18.6618 24.2912 18.7442 23.6285C18.8267 22.9659 18.4054 22.5191 17.7992 22.6249Z" fill="#0998EA"/>
<path id="Vector_26" d="M18.3156 18.5627C17.6781 18.6728 17.0898 19.3247 17.0006 20.0197C16.9115 20.7147 17.3572 21.1853 17.9946 21.0752C18.6321 20.9651 19.2204 20.3132 19.3074 19.6204C19.3943 18.9275 18.953 18.4527 18.3156 18.5627Z" fill="#0690F1"/>
<path id="Vector_27" d="M18.8329 14.5003C18.1643 14.6169 17.5469 15.3011 17.4533 16.0285C17.3597 16.7559 17.8277 17.2523 18.4964 17.1379C19.165 17.0235 19.7824 16.3371 19.8737 15.6098C19.9651 14.8824 19.5016 14.3837 18.8329 14.5003" fill="#0388F8"/>
<path id="Vector_28" d="M19.3478 10.4403C18.6502 10.5612 18.0106 11.2756 17.908 12.0376C17.8055 12.7995 18.2981 13.3175 18.9979 13.1966C19.6977 13.0758 20.3351 12.3592 20.4399 11.5994C20.5447 10.8396 20.0477 10.3194 19.3478 10.4403" fill="#0080FF"/>
</g>
</g>
<g id="Group_5">
<g id="Group_6">
<path id="Vector_29" d="M2.69481 17.7159C2.53354 17.7584 2.38889 17.8463 2.27936 17.9685C2.16982 18.0907 2.10034 18.2417 2.07966 18.4023C2.03731 18.7282 2.24678 18.9484 2.54544 18.8966C2.70663 18.8551 2.85143 18.7681 2.96138 18.6466C3.07132 18.5251 3.14143 18.3747 3.16282 18.2145C3.20293 17.8886 2.99569 17.6641 2.69481 17.7159Z" fill="#26EAA3"/>
<path id="Vector_30" d="M2.22411 21.4525C2.04929 21.4968 1.89219 21.5908 1.77302 21.7224C1.65385 21.8539 1.57807 22.017 1.55548 22.1907C1.5109 22.5425 1.73378 22.7821 2.05695 22.726C2.23146 22.6818 2.38836 22.5881 2.5075 22.457C2.62663 22.3258 2.70257 22.1632 2.72559 21.9899C2.77016 21.636 2.54505 21.3964 2.22188 21.4525" fill="#24E4A8"/>
<path id="Vector_31" d="M1.74521 25.1909C1.55822 25.2385 1.39016 25.3392 1.26267 25.4799C1.13519 25.6207 1.05405 25.7952 1.02973 25.9809C0.980695 26.3587 1.22367 26.6155 1.57136 26.5572C1.75815 26.5082 1.92566 26.4065 2.05265 26.2651C2.17964 26.1237 2.26037 25.9489 2.28456 25.7629C2.33359 25.3874 2.09067 25.1305 1.74521 25.1909" fill="#22DEAE"/>
<path id="Vector_32" d="M1.26773 28.927C1.06881 28.979 0.890264 29.0869 0.754608 29.2371C0.618952 29.3873 0.532276 29.573 0.505503 29.7709C0.454241 30.1745 0.712744 30.4487 1.08272 30.3839C1.28253 30.3328 1.46194 30.2248 1.5978 30.074C1.73366 29.9232 1.81979 29.7364 1.845 29.5378C1.89626 29.1363 1.6377 28.8622 1.26773 28.927Z" fill="#1FD7B3"/>
<path id="Vector_33" d="M0.817877 32.6288C0.606158 32.6848 0.416217 32.8001 0.271892 32.9602C0.127566 33.1204 0.0353061 33.3182 0.00662571 33.5289C-0.046865 33.9606 0.229504 34.2498 0.61954 34.1765C0.831357 34.121 1.02151 34.0062 1.16623 33.8464C1.31095 33.6867 1.40377 33.4891 1.43302 33.2785C1.48651 32.8469 1.21014 32.5576 0.817877 32.631" fill="#1DD1B9"/>
<path id="Vector_34" d="M1.3776 35.7476C1.15287 35.8057 0.951078 35.9272 0.797881 36.0967C0.644683 36.2662 0.54704 36.476 0.517325 36.6994C0.459376 37.1549 0.740185 37.4635 1.16811 37.3923C1.39316 37.334 1.5952 37.2122 1.74843 37.0423C1.90166 36.8723 1.99914 36.6621 2.02844 36.4383C2.08639 35.985 1.80553 35.6742 1.3776 35.7476Z" fill="#1BCBBE"/>
<path id="Vector_35" d="M3.25594 38.0011C3.01843 38.0621 2.8052 38.1905 2.64357 38.3697C2.48193 38.5489 2.37931 38.7708 2.34886 39.007C2.28646 39.4861 2.59399 39.8121 3.03529 39.7365C3.2728 39.6755 3.48608 39.5472 3.64771 39.368C3.80935 39.1887 3.91197 38.9668 3.94242 38.7307C4.0026 38.2515 3.69724 37.9234 3.25594 38.0011Z" fill="#19C5C3"/>
<path id="Vector_36" d="M6.19192 39.158C5.94162 39.223 5.71699 39.3587 5.54669 39.5478C5.37638 39.737 5.26813 39.971 5.23577 40.22C5.17113 40.7251 5.4943 41.0683 5.95789 40.9884C6.20787 40.9236 6.43231 40.7882 6.60258 40.5995C6.77285 40.4107 6.88126 40.1772 6.91404 39.9286C6.97868 39.4214 6.65551 39.0782 6.19192 39.158" fill="#16BEC9"/>
<path id="Vector_37" d="M9.91394 39.0049C9.65106 39.0727 9.41499 39.2149 9.23595 39.4133C9.05691 39.6117 8.94301 39.8572 8.90876 40.1186C8.8419 40.6496 9.18288 41.0122 9.66876 40.928C9.93196 40.8601 10.1682 40.7175 10.3473 40.5187C10.5264 40.3199 10.6401 40.0739 10.6739 39.8121C10.7408 39.2812 10.402 38.9207 9.91394 39.0049Z" fill="#14B8CE"/>
<path id="Vector_38" d="M13.7095 37.5133C13.4343 37.5848 13.1872 37.7341 12.9999 37.942C12.8125 38.15 12.6934 38.4072 12.6575 38.681C12.5862 39.2379 12.9428 39.6156 13.4532 39.5271C13.7287 39.4557 13.976 39.3065 14.1637 39.0986C14.3515 38.8907 14.4711 38.6334 14.5074 38.3594C14.5787 37.8047 14.2199 37.4248 13.7095 37.5133" fill="#12B2D4"/>
<path id="Vector_39" d="M16.9546 34.9925C16.4219 35.0853 15.9293 35.64 15.8535 36.2141C15.7777 36.7883 16.1522 37.1941 16.6871 37.1013C16.9752 37.0267 17.2338 36.8707 17.43 36.653C17.6261 36.4354 17.7508 36.1661 17.7881 35.8796C17.8617 35.2968 17.4895 34.8996 16.9546 34.9925Z" fill="#10ACD9"/>
<path id="Vector_40" d="M19.3143 31.7695C18.7571 31.8667 18.2422 32.4365 18.1642 33.0452C18.0862 33.6539 18.4762 34.0661 19.0357 33.969C19.5951 33.8719 20.1077 33.302 20.1857 32.6934C20.2638 32.0847 19.8737 31.6724 19.3143 31.7695Z" fill="#0DA5DF"/>
<path id="Vector_41" d="M20.4575 28.1631C19.878 28.2646 19.3431 28.8603 19.2606 29.4927C19.1781 30.1252 19.586 30.5569 20.1655 30.4554C20.745 30.354 21.2799 29.7604 21.3646 29.128C21.4492 28.4955 21.0392 28.0638 20.4575 28.1631Z" fill="#0B9FE4"/>
<path id="Vector_42" d="M20.9457 24.3337C20.3395 24.4395 19.7823 25.0568 19.6998 25.7173C19.6173 26.3778 20.0363 26.8246 20.6426 26.7188C21.2488 26.613 21.8038 25.9957 21.8885 25.3374C21.9732 24.6791 21.5497 24.2301 20.9457 24.3337Z" fill="#0999E9"/>
<path id="Vector_43" d="M21.4339 20.5048C20.8054 20.6127 20.2259 21.2559 20.1389 21.9423C20.052 22.6287 20.4889 23.0928 21.1174 22.9827C21.7459 22.8726 22.3254 22.2316 22.4123 21.5473C22.4993 20.8631 22.0602 20.3947 21.4339 20.5048Z" fill="#0793EF"/>
<path id="Vector_44" d="M21.9198 16.6757C21.2668 16.7901 20.6672 17.4571 20.5825 18.1672C20.4978 18.8773 20.9458 19.3608 21.5966 19.2464C22.2474 19.132 22.8492 18.4672 22.9339 17.7571C23.0185 17.047 22.5706 16.5635 21.9176 16.6779" fill="#048CF4"/>
<path id="Vector_45" d="M22.4077 12.8464C21.7391 12.9651 21.1084 13.6537 21.0148 14.3897C20.9211 15.1257 21.3936 15.6265 22.069 15.51C22.7443 15.3934 23.3683 14.7027 23.4619 13.9667C23.5556 13.2306 23.0831 12.7299 22.4077 12.8464Z" fill="#0286FA"/>
<path id="Vector_46" d="M22.8964 9.0175C22.1966 9.13837 21.5592 9.85498 21.4544 10.6148C21.3497 11.3745 21.8444 11.8947 22.5443 11.7738C23.2441 11.653 23.8815 10.9385 23.9863 10.1766C24.091 9.41467 23.5941 8.89663 22.8964 9.0175Z" fill="#0080FF"/>
</g>
</g>
</g>
</g>
</svg>
