<svg width="110" height="48" viewBox="0 0 110 48" fill="none" xmlns="http://www.w3.org/2000/svg">
<g id="logo" clip-path="url(#clip0_254_17198)">
<g id="Frame 133">
<g id="Group">
<g id="Group_2">
<path id="Vector" d="M13.1576 7.99677C12.9228 8.05885 12.712 8.18974 12.5522 8.37263C12.3924 8.55552 12.2909 8.78205 12.2608 9.02307C12.1993 9.51194 12.5037 9.8454 12.9375 9.7677C13.1721 9.70522 13.3827 9.5742 13.5425 9.39138C13.7022 9.20856 13.8039 8.98226 13.8343 8.7414C13.8958 8.25253 13.5915 7.91906 13.1576 7.99677Z" fill="#26EAA3"/>
<path id="Vector_2" d="M12.3229 14.7665C12.0536 14.8393 11.8118 14.9905 11.6285 15.2009C11.4452 15.4113 11.3286 15.6714 11.2933 15.9482C11.2221 16.5083 11.575 16.8903 12.0736 16.7997C12.3425 16.7271 12.5839 16.5764 12.7671 16.3666C12.9504 16.1568 13.0673 15.8974 13.1031 15.6212C13.1711 15.0579 12.8247 14.6758 12.3229 14.7665Z" fill="#22DEAD"/>
<path id="Vector_3" d="M11.4874 21.5395C11.1831 21.6202 10.91 21.79 10.7029 22.0271C10.4958 22.2642 10.3642 22.5577 10.3251 22.8701C10.2474 23.5014 10.6488 23.9352 11.2057 23.8413C11.5091 23.759 11.7814 23.5887 11.9883 23.352C12.1951 23.1152 12.3272 22.8225 12.368 22.5107C12.4457 21.8632 12.0442 21.4423 11.4874 21.5395Z" fill="#1ED2B7"/>
<path id="Vector_4" d="M10.6519 28.3059C10.3126 28.3967 10.0082 28.5866 9.7775 28.8513C9.5468 29.116 9.40032 29.4435 9.35684 29.792C9.26942 30.4978 9.70649 30.9769 10.3281 30.8668C10.6665 30.7756 10.9701 30.5859 11.2006 30.322C11.4312 30.058 11.5782 29.7316 11.6231 29.3841C11.7073 28.675 11.2702 28.1926 10.6519 28.3059Z" fill="#19C7C2"/>
<path id="Vector_5" d="M12.2581 33.7515C11.8861 33.8494 11.5515 34.0554 11.2968 34.3436C11.042 34.6318 10.8786 34.9891 10.8271 35.3703C10.7332 36.1506 11.2156 36.6653 11.9085 36.5552C12.2805 36.4574 12.615 36.2513 12.8698 35.9632C13.1245 35.675 13.288 35.3177 13.3395 34.9365C13.4333 34.153 12.9477 33.6415 12.2581 33.7483" fill="#15BBCC"/>
<path id="Vector_6" d="M17.9912 31.9094C17.583 32.0185 17.2165 32.2468 16.9386 32.5651C16.6607 32.8834 16.4838 33.2773 16.4307 33.6965C16.3238 34.5479 16.8548 35.1307 17.6091 34.9915C18.0182 34.8822 18.3854 34.6536 18.6639 34.3347C18.9424 34.0158 19.1196 33.6212 19.1729 33.2011C19.2765 32.3529 18.7488 31.7701 17.9912 31.9061" fill="#11AFD6"/>
<path id="Vector_7" d="M20.3188 25.0392C19.4965 25.1849 18.7389 26.0526 18.6256 26.9818C18.5123 27.911 19.0853 28.5358 19.9206 28.3901C20.7559 28.2444 21.5005 27.3735 21.6139 26.4476C21.7272 25.5217 21.1541 24.8936 20.3188 25.0425" fill="#0DA3E0"/>
<path id="Vector_8" d="M21.1866 18.0041C20.2995 18.1627 19.4804 19.0984 19.3606 20.0955C19.2408 21.0927 19.856 21.7726 20.7398 21.6139C21.6237 21.4553 22.446 20.5164 22.569 19.5225C22.692 18.5285 22.0736 17.8454 21.1866 18.0041" fill="#0898EB"/>
<path id="Vector_9" d="M22.0549 10.9818C21.1031 11.1534 20.2257 12.157 20.093 13.2254C19.9603 14.2938 20.6271 15.0255 21.5758 14.8442C22.5244 14.6629 23.405 13.669 23.5345 12.6006C23.664 11.5322 23.0035 10.8037 22.0549 10.9818Z" fill="#048CF5"/>
<path id="Vector_10" d="M22.9187 3.93687C21.9021 4.12141 20.9762 5.19629 20.8272 6.33591C20.6783 7.47553 21.3938 8.25578 22.4104 8.07448C23.427 7.89317 24.3529 6.8183 24.5051 5.67544C24.6572 4.53258 23.9353 3.75557 22.9187 3.93687" fill="#0080FF"/>
</g>
</g>
<g id="Group_3">
<g id="Group_4">
<path id="Vector_11" d="M8.54405 10.8588C8.31009 10.9208 8.10002 11.0513 7.9408 11.2336C7.78158 11.4159 7.68048 11.6417 7.65048 11.8818C7.58897 12.3707 7.89333 12.7074 8.32716 12.6297C8.5616 12.5659 8.77191 12.434 8.93151 12.2508C9.09111 12.0675 9.19287 11.8411 9.22397 11.6002C9.28224 11.1113 8.98112 10.7811 8.54405 10.8588Z" fill="#26EAA3"/>
<path id="Vector_12" d="M7.81593 16.7673C7.56082 16.8392 7.33266 16.9847 7.15988 17.1857C6.98711 17.3867 6.87742 17.6342 6.84467 17.8972C6.77668 18.4379 7.1134 18.807 7.59256 18.7195C7.85153 18.6504 8.08403 18.5056 8.26046 18.3038C8.4369 18.102 8.54929 17.8523 8.58327 17.5864C8.64802 17.049 8.31453 16.6831 7.83214 16.7673" fill="#23E2AA"/>
<path id="Vector_13" d="M7.08723 22.6758C6.80449 22.7523 6.5508 22.9109 6.3583 23.1317C6.1658 23.3524 6.04321 23.6253 6.00593 23.9158C5.93471 24.5018 6.30056 24.9065 6.82504 24.8126C7.10752 24.7368 7.36105 24.5787 7.55357 24.3586C7.74609 24.1384 7.86888 23.866 7.90634 23.5759C7.9808 22.9866 7.61495 22.5819 7.08723 22.6758Z" fill="#20DAB1"/>
<path id="Vector_14" d="M6.35834 28.5876C6.05168 28.6699 5.77648 28.8417 5.56776 29.0809C5.35904 29.3202 5.2263 29.6162 5.18638 29.9312C5.10868 30.5787 5.51014 31.0061 6.07347 30.9025C6.3795 30.8184 6.65407 30.6462 6.86302 30.4073C7.07197 30.1684 7.20605 29.8734 7.24867 29.5589C7.32637 28.9114 6.92491 28.4808 6.35834 28.5876Z" fill="#1DD2B8"/>
<path id="Vector_15" d="M6.35229 34.4541C6.02191 34.5427 5.7254 34.7276 5.50053 34.9853C5.27566 35.2431 5.13265 35.5619 5.08967 35.9012C5.00549 36.5908 5.43285 37.0603 6.06094 36.9535C6.39216 36.8648 6.68944 36.6795 6.91491 36.4212C7.14037 36.1629 7.28377 35.8432 7.32679 35.503C7.41097 34.8134 6.98361 34.344 6.35553 34.4541" fill="#1AC9BF"/>
<path id="Vector_16" d="M8.88745 38.501C8.53292 38.5967 8.21474 38.7955 7.97325 39.0721C7.73177 39.3487 7.57785 39.6908 7.53094 40.055C7.44028 40.7964 7.89999 41.2983 8.55722 41.1817C8.91195 41.0864 9.23034 40.8878 9.47189 40.6111C9.71344 40.3343 9.86723 39.992 9.91373 39.6277C10.0044 38.8895 9.54468 38.3845 8.88745 38.501Z" fill="#17C1C6"/>
<path id="Vector_17" d="M13.4099 39.7313C13.0315 39.8325 12.6917 40.0437 12.4335 40.3382C12.1753 40.6328 12.0103 40.9973 11.9595 41.3857C11.8624 42.1789 12.3545 42.7163 13.0571 42.5933C13.4362 42.4913 13.7764 42.279 14.0347 41.9833C14.2929 41.6876 14.4575 41.3218 14.5075 40.9324C14.6046 40.1425 14.1125 39.605 13.4099 39.7313Z" fill="#14B9CD"/>
<path id="Vector_18" d="M18.6772 37.5524C18.2742 37.6603 17.9125 37.8857 17.638 38.1999C17.3636 38.5142 17.1888 38.903 17.1362 39.3169C17.0326 40.1586 17.5538 40.7317 18.3017 40.6119C18.7043 40.5032 19.0657 40.2776 19.34 39.9635C19.6143 39.6494 19.7893 39.261 19.8428 38.8474C19.9464 38.0057 19.4251 37.4326 18.6772 37.5524Z" fill="#12B1D5"/>
<path id="Vector_19" d="M22.896 32.777C22.1028 32.9195 21.3711 33.7483 21.2772 34.6483C21.1833 35.5484 21.724 36.1441 22.5139 36.0049C23.3039 35.8656 24.0388 35.0336 24.1327 34.1336C24.2266 33.2335 23.6859 32.6346 22.896 32.777Z" fill="#0FA9DC"/>
<path id="Vector_20" d="M25.1008 26.5382C24.2655 26.6872 23.482 27.571 23.3784 28.5132C23.2748 29.4553 23.8446 30.0931 24.6734 29.9442C25.5022 29.7952 26.2922 28.9114 26.3958 27.9692C26.4994 27.0271 25.9296 26.3893 25.1008 26.5382Z" fill="#0CA1E3"/>
<path id="Vector_21" d="M25.8553 20.4355C24.9747 20.5909 24.1621 21.5233 24.0391 22.514C23.9161 23.5047 24.5312 24.1781 25.4118 24.0227C26.2924 23.8673 27.1083 22.9348 27.2281 21.9409C27.3479 20.947 26.7359 20.2768 25.8553 20.4355Z" fill="#0998EA"/>
<path id="Vector_22" d="M26.6063 14.3424C25.6804 14.5075 24.8257 15.4852 24.6962 16.5277C24.5667 17.5702 25.2142 18.276 26.1401 18.1109C27.0661 17.9458 27.9207 16.968 28.047 15.9288C28.1733 14.8895 27.5322 14.1773 26.6063 14.3424Z" fill="#0690F1"/>
<path id="Vector_23" d="M27.3573 8.2493C26.386 8.42413 25.4892 9.45044 25.3533 10.5415C25.2173 11.6325 25.8971 12.3772 26.8684 12.2056C27.8397 12.034 28.7365 11.0045 28.8692 9.91341C29.0019 8.82235 28.3285 8.07447 27.3573 8.2493" fill="#0388F8"/>
<path id="Vector_24" d="M28.1052 2.15945C27.0919 2.34076 26.1627 3.41239 26.0138 4.55525C25.8648 5.69811 26.5803 6.47512 27.5969 6.29382C28.6135 6.11251 29.5394 5.03764 29.6916 3.89802C29.8437 2.7584 29.1218 1.97815 28.1052 2.15945" fill="#0080FF"/>
</g>
</g>
<g id="Group_5">
<g id="Group_6">
<path id="Vector_25" d="M3.91417 13.0733C3.67991 13.1369 3.4698 13.2688 3.31068 13.4521C3.15157 13.6354 3.05064 13.8619 3.0206 14.1028C2.95909 14.5917 3.26337 14.9219 3.6972 14.8442C3.93134 14.7819 4.14169 14.6514 4.30139 14.4692C4.4611 14.287 4.56294 14.0614 4.59401 13.8211C4.65228 13.3323 4.35124 12.9956 3.91417 13.0733Z" fill="#26EAA3"/>
<path id="Vector_26" d="M3.23146 18.6775C2.97751 18.7439 2.74931 18.8849 2.5762 19.0823C2.4031 19.2796 2.29302 19.5243 2.26019 19.7847C2.19544 20.3124 2.5192 20.6718 2.98864 20.5876C3.24213 20.5213 3.47005 20.3809 3.64311 20.1841C3.81617 19.9874 3.92648 19.7435 3.95991 19.4836C4.02466 18.9527 3.69766 18.5933 3.22822 18.6775" fill="#24E4A8"/>
<path id="Vector_27" d="M2.53479 24.2849C2.26315 24.3563 2.01903 24.5072 1.83384 24.7184C1.64866 24.9295 1.5308 25.1912 1.49547 25.4699C1.42424 26.0364 1.77719 26.4217 2.28225 26.3343C2.55358 26.2607 2.79691 26.1082 2.98137 25.8961C3.16584 25.684 3.28311 25.4218 3.31825 25.1429C3.38948 24.5795 3.03661 24.1943 2.53479 24.2849" fill="#22DEAE"/>
<path id="Vector_28" d="M1.84222 29.8891C1.55326 29.9672 1.29391 30.129 1.09685 30.3543C0.899795 30.5796 0.773889 30.8582 0.734998 31.155C0.660534 31.7604 1.03604 32.1716 1.57347 32.0745C1.86372 31.9978 2.12433 31.8359 2.32168 31.6097C2.51904 31.3835 2.64415 31.1033 2.68077 30.8053C2.75524 30.2032 2.37965 29.792 1.84222 29.8891Z" fill="#1FD7B3"/>
<path id="Vector_29" d="M1.18806 35.4415C0.880514 35.5255 0.604603 35.6984 0.394954 35.9386C0.185304 36.1788 0.0512861 36.4755 0.00962461 36.7916C-0.0680767 37.4391 0.33338 37.8729 0.899952 37.7628C1.20764 37.6796 1.48387 37.5074 1.69409 37.2678C1.90431 37.0282 2.03913 36.7319 2.08163 36.416C2.15933 35.7685 1.75787 35.3347 1.18806 35.4448" fill="#1DD1B9"/>
<path id="Vector_30" d="M2.00087 40.1198C1.67442 40.2069 1.38129 40.3893 1.15875 40.6435C0.936218 40.8977 0.794379 41.2124 0.751215 41.5475C0.667038 42.2307 1.07494 42.6936 1.69656 42.5868C2.02346 42.4994 2.31696 42.3166 2.53954 42.0618C2.76212 41.8069 2.90372 41.4915 2.94629 41.1558C3.03046 40.4759 2.62248 40.0097 2.00087 40.1198Z" fill="#1BCBBE"/>
<path id="Vector_31" d="M4.7297 43.4998C4.3847 43.5913 4.07496 43.7838 3.84017 44.0526C3.60537 44.3214 3.4563 44.6543 3.41207 45.0085C3.32142 45.7272 3.76815 46.2161 4.40919 46.1028C4.75419 46.0113 5.06401 45.8188 5.2988 45.55C5.5336 45.2811 5.68267 44.9483 5.7269 44.5941C5.81431 43.8754 5.37074 43.3832 4.7297 43.4998Z" fill="#19C5C3"/>
<path id="Vector_32" d="M8.99365 45.2351C8.63006 45.3326 8.30375 45.5361 8.05637 45.8198C7.80899 46.1035 7.65174 46.4545 7.60473 46.828C7.51084 47.5856 7.98028 48.1004 8.65369 47.9806C9.01682 47.8834 9.34284 47.6803 9.59018 47.3972C9.83752 47.1141 9.995 46.7638 10.0426 46.3909C10.1365 45.6301 9.66706 45.1153 8.99365 45.2351" fill="#16BEC9"/>
<path id="Vector_33" d="M14.401 45.0053C14.0191 45.107 13.6762 45.3203 13.4162 45.6179C13.1561 45.9154 12.9906 46.2838 12.9409 46.6758C12.8437 47.4723 13.3391 48.0162 14.0449 47.8899C14.4272 47.7879 14.7704 47.5742 15.0305 47.276C15.2906 46.9778 15.4558 46.6087 15.505 46.2161C15.6021 45.4197 15.11 44.879 14.401 45.0053Z" fill="#14B8CE"/>
<path id="Vector_34" d="M19.9144 42.7681C19.5145 42.8754 19.1557 43.0992 18.8836 43.4112C18.6114 43.7231 18.4383 44.109 18.3862 44.5196C18.2826 45.3549 18.8006 45.9215 19.542 45.7887C19.9422 45.6816 20.3015 45.4579 20.5742 45.146C20.8469 44.8341 21.0207 44.4481 21.0734 44.0372C21.177 43.2052 20.6558 42.6354 19.9144 42.7681" fill="#12B2D4"/>
<path id="Vector_35" d="M24.6282 38.9867C23.8544 39.1259 23.1389 39.9579 23.0288 40.8191C22.9187 41.6803 23.4626 42.289 24.2396 42.1498C24.6582 42.0379 25.0339 41.8038 25.3188 41.4774C25.6037 41.151 25.7849 40.7471 25.8391 40.3173C25.9459 39.4431 25.4052 38.8474 24.6282 38.9867Z" fill="#10ACD9"/>
<path id="Vector_36" d="M28.0561 34.153C27.2467 34.2987 26.4988 35.1534 26.3855 36.0664C26.2722 36.9794 26.8387 37.5977 27.6514 37.452C28.464 37.3064 29.2087 36.4516 29.322 35.5386C29.4353 34.6256 28.8687 34.0073 28.0561 34.153Z" fill="#0DA5DF"/>
<path id="Vector_37" d="M29.7179 28.743C28.8761 28.8952 28.0991 29.7888 27.9793 30.7374C27.8595 31.686 28.452 32.3335 29.2937 32.1813C30.1355 32.0291 30.9125 31.1388 31.0355 30.1902C31.1585 29.2416 30.5629 28.5941 29.7179 28.743Z" fill="#0B9FE4"/>
<path id="Vector_38" d="M30.4264 22.9996C29.5458 23.1582 28.7364 24.0842 28.6166 25.0749C28.4968 26.0656 29.1055 26.7357 29.9861 26.5771C30.8667 26.4185 31.6729 25.4925 31.7959 24.5051C31.9189 23.5176 31.3038 22.8442 30.4264 22.9996Z" fill="#0999E9"/>
<path id="Vector_39" d="M31.1353 17.2562C30.2223 17.4181 29.3805 18.3828 29.2543 19.4124C29.128 20.4419 29.7626 21.138 30.6756 20.9729C31.5886 20.8078 32.4304 19.8462 32.5567 18.8199C32.6829 17.7936 32.0451 17.0911 31.1353 17.2562Z" fill="#0793EF"/>
<path id="Vector_40" d="M31.8412 11.5128C30.8926 11.6843 30.0217 12.6847 29.8987 13.7499C29.7757 14.8151 30.4264 15.5403 31.3717 15.3687C32.3171 15.1971 33.1912 14.1999 33.3143 13.1348C33.4373 12.0696 32.7866 11.3444 31.838 11.516" fill="#048CF4"/>
<path id="Vector_41" d="M32.5504 5.76934C31.5791 5.94741 30.6629 6.98018 30.5269 8.08418C30.391 9.18819 31.0773 9.9393 32.0583 9.76447C33.0393 9.58965 33.9458 8.55364 34.0818 7.44963C34.2177 6.34563 33.5314 5.59451 32.5504 5.76934Z" fill="#0286FA"/>
<path id="Vector_42" d="M33.2596 0.0258989C32.243 0.207202 31.317 1.28208 31.1649 2.4217C31.0127 3.56132 31.7314 4.34157 32.748 4.16026C33.7646 3.97896 34.6905 2.90734 34.8427 1.76448C34.9949 0.621627 34.2729 -0.155404 33.2596 0.0258989Z" fill="#0080FF"/>
</g>
</g>
</g>
<g id="Frame" clip-path="url(#clip1_254_17198)">
<path id="Vector_43" d="M60.7301 13.9999C60.0427 14.0006 59.3837 14.2739 58.8976 14.76C58.4115 15.2461 58.1381 15.9051 58.1375 16.5925V24.8909C58.1375 26.1684 57.8432 27.129 57.2799 27.735C56.7167 28.3411 55.7385 28.6126 54.4384 28.6126C53.1383 28.6126 52.1551 28.3209 51.5993 27.7375C51.0436 27.1541 50.7393 26.196 50.7393 24.8909V15.134C50.7386 14.8334 50.619 14.5454 50.4064 14.3328C50.1939 14.1203 49.9057 14.0006 49.6052 13.9999C48.9149 14.0006 48.253 14.2749 47.7647 14.7628C47.2763 15.2507 47.0013 15.9123 47 16.6026V24.8457C47 27.1416 47.6739 28.9446 49.0117 30.2069C50.2842 31.3989 52.1123 31.9999 54.4459 31.9999C56.7795 31.9999 58.5952 31.3913 59.9028 30.1818C61.2104 28.9722 61.8818 27.1416 61.8818 24.8457V15.1441C61.8818 14.9932 61.852 14.8438 61.794 14.7045C61.736 14.5652 61.6511 14.4387 61.544 14.3323C61.437 14.226 61.3099 14.1419 61.1702 14.0848C61.0306 14.0278 60.8809 13.9989 60.7301 13.9999V13.9999Z" fill="#161616"/>
<path id="Vector_44" d="M79.6781 16.399C78.1844 14.8072 75.9942 14 73.1702 14H71.2439C70.0058 14.0013 68.8189 14.4938 67.9434 15.3692C67.068 16.2447 66.5756 17.4317 66.5742 18.6697V30.5189C66.5749 30.8252 66.697 31.1188 66.9139 31.3352C67.1308 31.5516 67.4246 31.6731 67.7309 31.6731H73.1702C75.9942 31.6731 78.1844 30.8659 79.6781 29.2741C81.0989 27.7653 81.8206 25.5876 81.8206 22.8365C81.8206 20.0855 81.0989 17.9053 79.6781 16.399ZM78.1065 22.8365C78.1065 24.7477 77.6815 26.1635 76.8491 27.0335C76.0168 27.9036 74.5734 28.3336 72.6522 28.3336H70.4569C70.4173 28.3336 70.3792 28.3181 70.351 28.2903C70.3228 28.2626 70.3066 28.2248 70.3059 28.1852V19.1324C70.3073 18.658 70.4964 18.2034 70.8318 17.8679C71.1673 17.5324 71.622 17.3433 72.0964 17.342H72.6522C74.5884 17.342 76.0017 17.772 76.8491 18.6194C77.6966 19.4669 78.1065 20.8676 78.1065 22.8365Z" fill="#161616"/>
<path id="Vector_45" d="M106.836 16.399C105.343 14.8072 103.152 14 100.328 14H98.4021C97.164 14.0013 95.9771 14.4938 95.1016 15.3692C94.2262 16.2447 93.7338 17.4317 93.7324 18.6697V30.5189C93.7331 30.8252 93.8553 31.1188 94.0721 31.3352C94.289 31.5516 94.5828 31.6731 94.8891 31.6731H100.328C103.152 31.6731 105.343 30.8659 106.836 29.2741C108.257 27.7653 108.979 25.5876 108.979 22.8365C108.979 20.0855 108.257 17.9053 106.836 16.399ZM105.265 22.8365C105.265 24.7477 104.84 26.1635 104.007 27.0335C103.175 27.9036 101.732 28.3336 99.8104 28.3336H97.6151C97.5755 28.3336 97.5374 28.3181 97.5092 28.2903C97.481 28.2626 97.4648 28.2248 97.4642 28.1852V19.1324C97.4655 18.658 97.6546 18.2034 97.99 17.8679C98.3255 17.5324 98.7802 17.3433 99.2546 17.342H99.8104C101.747 17.342 103.16 17.772 104.007 18.6194C104.855 19.4669 105.265 20.8676 105.265 22.8365Z" fill="#161616"/>
<path id="Vector_46" d="M87.9335 14C87.2461 14.0007 86.587 14.274 86.1009 14.7601C85.6149 15.2462 85.3415 15.9052 85.3408 16.5926V30.5289C85.3408 30.8324 85.4614 31.1234 85.676 31.338C85.8905 31.5525 86.1816 31.6731 86.485 31.6731H87.9335C88.2369 31.6731 88.5279 31.5525 88.7425 31.338C88.9571 31.1234 89.0776 30.8324 89.0776 30.5289V15.1442C89.0776 14.8407 88.9571 14.5497 88.7425 14.3351C88.5279 14.1205 88.2369 14 87.9335 14V14Z" fill="#161616"/>
</g>
</g>
<defs>
<clipPath id="clip0_254_17198">
<rect width="110" height="48" fill="white"/>
</clipPath>
<clipPath id="clip1_254_17198">
<rect width="61.979" height="18" fill="white" transform="translate(47 14)"/>
</clipPath>
</defs>
</svg>
